<?xml version="1.0"?>
<svg version="1.1" xmlns="http://www.w3.org/2000/svg" width="105px" height="36px" style="border: dashed 2px #aaa"><path fill="#090e12" d="M12.2783203125,22.2451171875q0,3.1728515625-1.80615234375,4.8603515625t-5.21630859375,1.6875l-3.638671875,0l0-12.849609375l4.0341796875,0q3.146484375,0,4.88671875,1.6611328125t1.740234375,4.640625z M9.4482421875,22.3154296875q0-4.1396484375-3.65625-4.1396484375l-1.4501953125,0l0,8.3671875l1.1689453125,0q3.9375,0,3.9375-4.2275390625z M22.207939453125,28.79296875l-0.5185546875-1.3359375l-0.0703125,0q-0.6767578125,0.8525390625-1.39306640625,1.18212890625t-1.86767578125,0.32958984375q-1.4150390625,0-2.22802734375-0.80859375t-0.81298828125-2.302734375q0-1.564453125,1.09423828125-2.30712890625t3.30029296875-0.82177734375l1.705078125-0.052734375l0-0.4306640625q0-1.494140625-1.529296875-1.494140625q-1.177734375,0-2.7685546875,0.7119140625l-0.8876953125-1.810546875q1.6962890625-0.8876953125,3.76171875-0.8876953125q1.9775390625,0,3.0322265625,0.861328125t1.0546875,2.619140625l0,6.5478515625l-1.8720703125,0z M21.416923828125,24.240234375l-1.037109375,0.03515625q-1.1689453125,0.03515625-1.740234375,0.421875t-0.5712890625,1.177734375q0,1.1337890625,1.30078125,1.1337890625q0.931640625,0,1.48974609375-0.5361328125t0.55810546875-1.423828125l0-0.80859375z M30.41490234375,28.79296875l-3.744140625-9.826171875l2.8037109375,0l1.8984375,5.5986328125q0.31640625,1.0634765625,0.3955078125,2.0126953125l0.052734375,0q0.0439453125-0.84375,0.3955078125-2.0126953125l1.8896484375-5.5986328125l2.8037109375,0l-3.744140625,9.826171875l-2.7509765625,0z M39.439248046875,16.4267578125q0-1.3095703125,1.458984375-1.3095703125t1.458984375,1.3095703125q0,0.6240234375-0.36474609375,0.97119140625t-1.09423828125,0.34716796875q-1.458984375,0-1.458984375-1.318359375z M42.234169921875,28.79296875l-2.6806640625,0l0-9.826171875l2.6806640625,0l0,9.826171875z M59.992822265625,25.224609375q0,1.740234375-1.25244140625,2.7421875t-3.48486328125,1.001953125q-2.056640625,0-3.638671875-0.7734375l0-2.53125q1.30078125,0.580078125,2.20166015625,0.8173828125t1.64794921875,0.2373046875q0.896484375,0,1.37548828125-0.3427734375t0.47900390625-1.01953125q0-0.3779296875-0.2109375-0.67236328125t-0.61962890625-0.56689453125t-1.66552734375-0.8701171875q-1.177734375-0.5537109375-1.7666015625-1.0634765625t-0.9404296875-1.1865234375t-0.3515625-1.58203125q0-1.705078125,1.15576171875-2.6806640625t3.19482421875-0.9755859375q1.001953125,0,1.91162109375,0.2373046875t1.90283203125,0.66796875l-0.87890625,2.1181640625q-1.0283203125-0.421875-1.70068359375-0.5888671875t-1.32275390625-0.1669921875q-0.7734375,0-1.1865234375,0.3603515625t-0.4130859375,0.9404296875q0,0.3603515625,0.1669921875,0.62841796875t0.53173828125,0.5185546875t1.72705078125,0.90087890625q1.8017578125,0.861328125,2.4697265625,1.72705078125t0.66796875,2.12255859375z M63.23396484375,16.4267578125q0-1.3095703125,1.458984375-1.3095703125t1.458984375,1.3095703125q0,0.6240234375-0.36474609375,0.97119140625t-1.09423828125,0.34716796875q-1.458984375,0-1.458984375-1.318359375z M66.02888671875,28.79296875l-2.6806640625,0l0-9.826171875l2.6806640625,0l0,9.826171875z M72.759287109375,28.79296875l-2.6806640625,0l0-13.67578125l2.6806640625,0l0,13.67578125z M79.1469140625,28.79296875l-3.744140625-9.826171875l2.8037109375,0l1.8984375,5.5986328125q0.31640625,1.0634765625,0.3955078125,2.0126953125l0.052734375,0q0.0439453125-0.84375,0.3955078125-2.0126953125l1.8896484375-5.5986328125l2.8037109375,0l-3.744140625,9.826171875l-2.7509765625,0z M94.525751953125,28.79296875l-0.5185546875-1.3359375l-0.0703125,0q-0.6767578125,0.8525390625-1.39306640625,1.18212890625t-1.86767578125,0.32958984375q-1.4150390625,0-2.22802734375-0.80859375t-0.81298828125-2.302734375q0-1.564453125,1.09423828125-2.30712890625t3.30029296875-0.82177734375l1.705078125-0.052734375l0-0.4306640625q0-1.494140625-1.529296875-1.494140625q-1.177734375,0-2.7685546875,0.7119140625l-0.8876953125-1.810546875q1.6962890625-0.8876953125,3.76171875-0.8876953125q1.9775390625,0,3.0322265625,0.861328125t1.0546875,2.619140625l0,6.5478515625l-1.8720703125,0z M93.734736328125,24.240234375l-1.037109375,0.03515625q-1.1689453125,0.03515625-1.740234375,0.421875t-0.5712890625,1.177734375q0,1.1337890625,1.30078125,1.1337890625q0.931640625,0,1.48974609375-0.5361328125t0.55810546875-1.423828125l0-0.80859375z"/><path fill="#" d=""/></svg>
